<mxfile host="app.diagrams.net" modified="2021-08-26T07:40:07.340Z" agent="5.0 (Macintosh; Intel Mac OS X 11_2_1) AppleWebKit/537.36 (KHTML, like Gecko) Chrome/89.0.4389.90 Safari/537.36" etag="wJnpC_DudXO_lBakm30p" version="14.9.6" type="github">
  <diagram id="EUtWWq-tNDuLtqVCqcBS" name="Page-1">
    <mxGraphModel dx="1227" dy="809" grid="1" gridSize="10" guides="1" tooltips="1" connect="1" arrows="1" fold="1" page="1" pageScale="1" pageWidth="827" pageHeight="1169" math="0" shadow="0">
      <root>
        <mxCell id="0" />
        <mxCell id="1" parent="0" />
        <mxCell id="hakcB5w8vH9MiChZhZsF-4" value="EPEP pool" style="swimlane;html=1;childLayout=stackLayout;startSize=20;rounded=0;shadow=0;labelBackgroundColor=none;strokeWidth=1;fontFamily=Verdana;fontSize=8;align=center;" parent="1" vertex="1">
          <mxGeometry x="150" y="40" width="1330" height="1030" as="geometry" />
        </mxCell>
        <mxCell id="hakcB5w8vH9MiChZhZsF-9" style="edgeStyle=orthogonalEdgeStyle;rounded=1;html=1;labelBackgroundColor=none;startArrow=none;startFill=0;startSize=5;endArrow=classicThin;endFill=1;endSize=5;jettySize=auto;orthogonalLoop=1;strokeWidth=1;fontFamily=Verdana;fontSize=8" parent="hakcB5w8vH9MiChZhZsF-4" target="hakcB5w8vH9MiChZhZsF-25" edge="1">
          <mxGeometry relative="1" as="geometry">
            <mxPoint x="145" y="115" as="sourcePoint" />
          </mxGeometry>
        </mxCell>
        <mxCell id="hakcB5w8vH9MiChZhZsF-11" style="edgeStyle=orthogonalEdgeStyle;rounded=1;html=1;labelBackgroundColor=none;startArrow=none;startFill=0;startSize=5;endArrow=classicThin;endFill=1;endSize=5;jettySize=auto;orthogonalLoop=1;strokeWidth=1;fontFamily=Verdana;fontSize=8" parent="hakcB5w8vH9MiChZhZsF-4" source="hakcB5w8vH9MiChZhZsF-7" target="hakcB5w8vH9MiChZhZsF-27" edge="1">
          <mxGeometry relative="1" as="geometry" />
        </mxCell>
        <mxCell id="hakcB5w8vH9MiChZhZsF-5" value="guestApp/wechat" style="swimlane;html=1;startSize=20;" parent="hakcB5w8vH9MiChZhZsF-4" vertex="1">
          <mxGeometry y="20" width="190" height="1010" as="geometry" />
        </mxCell>
        <mxCell id="hakcB5w8vH9MiChZhZsF-7" value="fetch qrcode" style="rounded=1;whiteSpace=wrap;html=1;shadow=0;labelBackgroundColor=none;strokeWidth=1;fontFamily=Verdana;fontSize=8;align=center;" parent="hakcB5w8vH9MiChZhZsF-5" vertex="1">
          <mxGeometry x="40" y="155" width="100" height="60" as="geometry" />
        </mxCell>
        <mxCell id="hakcB5w8vH9MiChZhZsF-64" style="edgeStyle=orthogonalEdgeStyle;rounded=0;orthogonalLoop=1;jettySize=auto;html=1;exitX=0;exitY=0.5;exitDx=0;exitDy=0;entryX=0;entryY=0.5;entryDx=0;entryDy=0;" parent="hakcB5w8vH9MiChZhZsF-5" source="hakcB5w8vH9MiChZhZsF-8" target="hakcB5w8vH9MiChZhZsF-7" edge="1">
          <mxGeometry relative="1" as="geometry">
            <Array as="points">
              <mxPoint x="10" y="392" />
              <mxPoint x="10" y="185" />
            </Array>
          </mxGeometry>
        </mxCell>
        <mxCell id="hakcB5w8vH9MiChZhZsF-65" value="refresh" style="edgeLabel;html=1;align=center;verticalAlign=middle;resizable=0;points=[];" parent="hakcB5w8vH9MiChZhZsF-64" vertex="1" connectable="0">
          <mxGeometry x="0.0051" relative="1" as="geometry">
            <mxPoint as="offset" />
          </mxGeometry>
        </mxCell>
        <mxCell id="hakcB5w8vH9MiChZhZsF-8" value="show qrcode" style="rounded=1;whiteSpace=wrap;html=1;shadow=0;labelBackgroundColor=none;strokeWidth=1;fontFamily=Verdana;fontSize=8;align=center;" parent="hakcB5w8vH9MiChZhZsF-5" vertex="1">
          <mxGeometry x="30" y="362" width="100" height="60" as="geometry" />
        </mxCell>
        <mxCell id="BG-OPZnRmT2UVfXczNXb-1" value="create party" style="shape=process;whiteSpace=wrap;html=1;backgroundOutline=1;" vertex="1" parent="hakcB5w8vH9MiChZhZsF-5">
          <mxGeometry x="30" y="65" width="120" height="60" as="geometry" />
        </mxCell>
        <mxCell id="hakcB5w8vH9MiChZhZsF-24" value="redemption+" style="swimlane;html=1;startSize=20;" parent="hakcB5w8vH9MiChZhZsF-4" vertex="1">
          <mxGeometry x="190" y="20" width="160" height="1010" as="geometry" />
        </mxCell>
        <mxCell id="hakcB5w8vH9MiChZhZsF-34" value="verfiy&lt;br&gt;(scan)" style="rounded=1;whiteSpace=wrap;html=1;shadow=0;labelBackgroundColor=none;strokeWidth=1;fontFamily=Verdana;fontSize=8;align=center;" parent="hakcB5w8vH9MiChZhZsF-24" vertex="1">
          <mxGeometry x="30" y="362" width="100" height="60" as="geometry" />
        </mxCell>
        <mxCell id="hakcB5w8vH9MiChZhZsF-60" value="redeem&lt;br&gt;(scan)" style="rounded=1;whiteSpace=wrap;html=1;shadow=0;labelBackgroundColor=none;strokeWidth=1;fontFamily=Verdana;fontSize=8;align=center;" parent="hakcB5w8vH9MiChZhZsF-24" vertex="1">
          <mxGeometry x="30" y="462" width="100" height="60" as="geometry" />
        </mxCell>
        <mxCell id="hakcB5w8vH9MiChZhZsF-70" value="result" style="rounded=1;whiteSpace=wrap;html=1;shadow=0;labelBackgroundColor=none;strokeWidth=1;fontFamily=Verdana;fontSize=8;align=center;" parent="hakcB5w8vH9MiChZhZsF-24" vertex="1">
          <mxGeometry x="24" y="600" width="100" height="60" as="geometry" />
        </mxCell>
        <mxCell id="hakcB5w8vH9MiChZhZsF-26" value="earlyaccess-core-svc" style="swimlane;html=1;startSize=20;" parent="hakcB5w8vH9MiChZhZsF-4" vertex="1">
          <mxGeometry x="350" y="20" width="160" height="1010" as="geometry" />
        </mxCell>
        <mxCell id="hakcB5w8vH9MiChZhZsF-25" value="&lt;span style=&quot;font-size: 8px&quot;&gt;/eligible/check-eligibility&lt;/span&gt;" style="rounded=1;whiteSpace=wrap;html=1;shadow=0;labelBackgroundColor=none;strokeWidth=1;fontFamily=Verdana;fontSize=8;align=center;" parent="hakcB5w8vH9MiChZhZsF-26" vertex="1">
          <mxGeometry x="30" y="65" width="100" height="60" as="geometry" />
        </mxCell>
        <mxCell id="hakcB5w8vH9MiChZhZsF-31" value="earlyaccess-qrcode-svc" style="swimlane;html=1;startSize=20;" parent="hakcB5w8vH9MiChZhZsF-4" vertex="1">
          <mxGeometry x="510" y="20" width="160" height="1010" as="geometry" />
        </mxCell>
        <mxCell id="hakcB5w8vH9MiChZhZsF-27" value="&lt;span style=&quot;font-size: 8px&quot;&gt;generate&lt;br&gt;qrcode&lt;br&gt;&lt;/span&gt;" style="rounded=1;whiteSpace=wrap;html=1;shadow=0;labelBackgroundColor=none;strokeWidth=1;fontFamily=Verdana;fontSize=8;align=center;" parent="hakcB5w8vH9MiChZhZsF-31" vertex="1">
          <mxGeometry x="30" y="155" width="100" height="60" as="geometry" />
        </mxCell>
        <mxCell id="hakcB5w8vH9MiChZhZsF-67" value="verfiy&lt;br&gt;qrcode" style="rounded=1;whiteSpace=wrap;html=1;shadow=0;labelBackgroundColor=none;strokeWidth=1;fontFamily=Verdana;fontSize=8;align=center;" parent="hakcB5w8vH9MiChZhZsF-31" vertex="1">
          <mxGeometry x="30" y="291" width="100" height="60" as="geometry" />
        </mxCell>
        <mxCell id="hakcB5w8vH9MiChZhZsF-40" value="earlyaccess-redemption-svc" style="swimlane;html=1;startSize=20;" parent="hakcB5w8vH9MiChZhZsF-4" vertex="1">
          <mxGeometry x="670" y="20" width="180" height="1010" as="geometry" />
        </mxCell>
        <mxCell id="hakcB5w8vH9MiChZhZsF-84" style="edgeStyle=none;rounded=0;orthogonalLoop=1;jettySize=auto;html=1;exitX=0.75;exitY=1;exitDx=0;exitDy=0;entryX=0.75;entryY=0;entryDx=0;entryDy=0;" parent="hakcB5w8vH9MiChZhZsF-40" source="hakcB5w8vH9MiChZhZsF-41" target="hakcB5w8vH9MiChZhZsF-42" edge="1">
          <mxGeometry relative="1" as="geometry" />
        </mxCell>
        <mxCell id="hakcB5w8vH9MiChZhZsF-41" value="redeem epep" style="rounded=1;whiteSpace=wrap;html=1;shadow=0;labelBackgroundColor=none;strokeWidth=1;fontFamily=Verdana;fontSize=8;align=center;" parent="hakcB5w8vH9MiChZhZsF-40" vertex="1">
          <mxGeometry x="30" y="462" width="100" height="60" as="geometry" />
        </mxCell>
        <mxCell id="hakcB5w8vH9MiChZhZsF-42" value="&lt;span style=&quot;font-size: 8px&quot;&gt;redemption&lt;br&gt;_item_queue&lt;/span&gt;" style="rounded=1;whiteSpace=wrap;html=1;shadow=0;labelBackgroundColor=none;strokeWidth=1;fontFamily=Verdana;fontSize=8;align=center;" parent="hakcB5w8vH9MiChZhZsF-40" vertex="1">
          <mxGeometry x="30" y="592" width="100" height="60" as="geometry" />
        </mxCell>
        <mxCell id="hakcB5w8vH9MiChZhZsF-43" value="asyc call&lt;br&gt;eCoupon" style="rounded=1;whiteSpace=wrap;html=1;shadow=0;labelBackgroundColor=none;strokeWidth=1;fontFamily=Verdana;fontSize=8;align=center;" parent="hakcB5w8vH9MiChZhZsF-40" vertex="1">
          <mxGeometry x="30" y="716" width="100" height="60" as="geometry" />
        </mxCell>
        <mxCell id="hakcB5w8vH9MiChZhZsF-46" style="edgeStyle=orthogonalEdgeStyle;rounded=1;html=1;labelBackgroundColor=none;startArrow=none;startFill=0;startSize=5;endArrow=classicThin;endFill=1;endSize=5;jettySize=auto;orthogonalLoop=1;strokeWidth=1;fontFamily=Verdana;fontSize=8" parent="hakcB5w8vH9MiChZhZsF-40" source="hakcB5w8vH9MiChZhZsF-42" target="hakcB5w8vH9MiChZhZsF-43" edge="1">
          <mxGeometry relative="1" as="geometry" />
        </mxCell>
        <mxCell id="hakcB5w8vH9MiChZhZsF-57" value="verfiy epep" style="rounded=1;whiteSpace=wrap;html=1;shadow=0;labelBackgroundColor=none;strokeWidth=1;fontFamily=Verdana;fontSize=8;align=center;" parent="hakcB5w8vH9MiChZhZsF-40" vertex="1">
          <mxGeometry x="30" y="362" width="100" height="60" as="geometry" />
        </mxCell>
        <mxCell id="hakcB5w8vH9MiChZhZsF-81" value="retry&amp;nbsp;" style="edgeStyle=orthogonalEdgeStyle;curved=1;rounded=0;orthogonalLoop=1;jettySize=auto;html=1;exitX=0.75;exitY=1;exitDx=0;exitDy=0;entryX=0.25;entryY=1;entryDx=0;entryDy=0;" parent="hakcB5w8vH9MiChZhZsF-40" source="hakcB5w8vH9MiChZhZsF-43" target="hakcB5w8vH9MiChZhZsF-43" edge="1">
          <mxGeometry relative="1" as="geometry">
            <Array as="points">
              <mxPoint x="105" y="840" />
              <mxPoint x="55" y="840" />
            </Array>
          </mxGeometry>
        </mxCell>
        <mxCell id="hakcB5w8vH9MiChZhZsF-47" value="eCoupon" style="swimlane;html=1;startSize=20;" parent="hakcB5w8vH9MiChZhZsF-4" vertex="1">
          <mxGeometry x="850" y="20" width="160" height="1010" as="geometry" />
        </mxCell>
        <mxCell id="hakcB5w8vH9MiChZhZsF-48" value="use&lt;br&gt;coupon" style="rounded=1;whiteSpace=wrap;html=1;shadow=0;labelBackgroundColor=none;strokeWidth=1;fontFamily=Verdana;fontSize=8;align=center;" parent="hakcB5w8vH9MiChZhZsF-47" vertex="1">
          <mxGeometry x="30" y="824" width="100" height="60" as="geometry" />
        </mxCell>
        <mxCell id="hakcB5w8vH9MiChZhZsF-29" value="lock&lt;br&gt;coupon" style="rounded=1;whiteSpace=wrap;html=1;shadow=0;labelBackgroundColor=none;strokeWidth=1;fontFamily=Verdana;fontSize=8;align=center;" parent="hakcB5w8vH9MiChZhZsF-47" vertex="1">
          <mxGeometry x="30" y="701" width="100" height="60" as="geometry" />
        </mxCell>
        <mxCell id="hakcB5w8vH9MiChZhZsF-49" value="TCON" style="swimlane;html=1;startSize=20;" parent="hakcB5w8vH9MiChZhZsF-4" vertex="1">
          <mxGeometry x="1010" y="20" width="160" height="1010" as="geometry" />
        </mxCell>
        <mxCell id="hakcB5w8vH9MiChZhZsF-73" value="notify tcon" style="rounded=1;whiteSpace=wrap;html=1;shadow=0;labelBackgroundColor=none;strokeWidth=1;fontFamily=Verdana;fontSize=8;align=center;" parent="hakcB5w8vH9MiChZhZsF-49" vertex="1">
          <mxGeometry x="40" y="900" width="100" height="60" as="geometry" />
        </mxCell>
        <mxCell id="hakcB5w8vH9MiChZhZsF-53" value="galaxy" style="swimlane;html=1;startSize=20;" parent="hakcB5w8vH9MiChZhZsF-4" vertex="1">
          <mxGeometry x="1170" y="20" width="160" height="1010" as="geometry" />
        </mxCell>
        <mxCell id="hakcB5w8vH9MiChZhZsF-56" value="notify galaxy" style="rounded=1;whiteSpace=wrap;html=1;shadow=0;labelBackgroundColor=none;strokeWidth=1;fontFamily=Verdana;fontSize=8;align=center;" parent="hakcB5w8vH9MiChZhZsF-53" vertex="1">
          <mxGeometry x="50" y="900" width="100" height="60" as="geometry" />
        </mxCell>
        <mxCell id="hakcB5w8vH9MiChZhZsF-58" style="edgeStyle=orthogonalEdgeStyle;rounded=0;orthogonalLoop=1;jettySize=auto;html=1;exitX=0.5;exitY=1;exitDx=0;exitDy=0;" parent="hakcB5w8vH9MiChZhZsF-4" source="hakcB5w8vH9MiChZhZsF-27" target="hakcB5w8vH9MiChZhZsF-8" edge="1">
          <mxGeometry relative="1" as="geometry">
            <Array as="points">
              <mxPoint x="590" y="280" />
              <mxPoint x="80" y="280" />
            </Array>
          </mxGeometry>
        </mxCell>
        <mxCell id="hakcB5w8vH9MiChZhZsF-61" style="edgeStyle=orthogonalEdgeStyle;rounded=0;orthogonalLoop=1;jettySize=auto;html=1;exitX=1;exitY=0.5;exitDx=0;exitDy=0;" parent="hakcB5w8vH9MiChZhZsF-4" source="hakcB5w8vH9MiChZhZsF-8" target="hakcB5w8vH9MiChZhZsF-34" edge="1">
          <mxGeometry relative="1" as="geometry" />
        </mxCell>
        <mxCell id="hakcB5w8vH9MiChZhZsF-62" style="edgeStyle=orthogonalEdgeStyle;rounded=0;orthogonalLoop=1;jettySize=auto;html=1;exitX=1;exitY=0.5;exitDx=0;exitDy=0;" parent="hakcB5w8vH9MiChZhZsF-4" source="hakcB5w8vH9MiChZhZsF-34" target="hakcB5w8vH9MiChZhZsF-57" edge="1">
          <mxGeometry relative="1" as="geometry" />
        </mxCell>
        <mxCell id="hakcB5w8vH9MiChZhZsF-63" style="edgeStyle=orthogonalEdgeStyle;rounded=0;orthogonalLoop=1;jettySize=auto;html=1;exitX=0.5;exitY=1;exitDx=0;exitDy=0;entryX=0;entryY=0.5;entryDx=0;entryDy=0;" parent="hakcB5w8vH9MiChZhZsF-4" source="hakcB5w8vH9MiChZhZsF-8" target="hakcB5w8vH9MiChZhZsF-60" edge="1">
          <mxGeometry relative="1" as="geometry" />
        </mxCell>
        <mxCell id="hakcB5w8vH9MiChZhZsF-66" style="edgeStyle=orthogonalEdgeStyle;rounded=0;orthogonalLoop=1;jettySize=auto;html=1;exitX=1;exitY=0.5;exitDx=0;exitDy=0;entryX=0;entryY=0.5;entryDx=0;entryDy=0;" parent="hakcB5w8vH9MiChZhZsF-4" source="hakcB5w8vH9MiChZhZsF-60" target="hakcB5w8vH9MiChZhZsF-41" edge="1">
          <mxGeometry relative="1" as="geometry" />
        </mxCell>
        <mxCell id="hakcB5w8vH9MiChZhZsF-68" style="edgeStyle=orthogonalEdgeStyle;rounded=0;orthogonalLoop=1;jettySize=auto;html=1;exitX=0.5;exitY=0;exitDx=0;exitDy=0;entryX=1;entryY=0.5;entryDx=0;entryDy=0;" parent="hakcB5w8vH9MiChZhZsF-4" source="hakcB5w8vH9MiChZhZsF-57" target="hakcB5w8vH9MiChZhZsF-67" edge="1">
          <mxGeometry relative="1" as="geometry" />
        </mxCell>
        <mxCell id="hakcB5w8vH9MiChZhZsF-72" style="edgeStyle=orthogonalEdgeStyle;rounded=0;orthogonalLoop=1;jettySize=auto;html=1;exitX=0.25;exitY=1;exitDx=0;exitDy=0;entryX=0.75;entryY=0;entryDx=0;entryDy=0;" parent="hakcB5w8vH9MiChZhZsF-4" source="hakcB5w8vH9MiChZhZsF-41" target="hakcB5w8vH9MiChZhZsF-70" edge="1">
          <mxGeometry relative="1" as="geometry" />
        </mxCell>
        <mxCell id="hakcB5w8vH9MiChZhZsF-74" style="edgeStyle=orthogonalEdgeStyle;rounded=0;orthogonalLoop=1;jettySize=auto;html=1;exitX=0.5;exitY=1;exitDx=0;exitDy=0;entryX=0;entryY=0.5;entryDx=0;entryDy=0;" parent="hakcB5w8vH9MiChZhZsF-4" source="hakcB5w8vH9MiChZhZsF-48" target="hakcB5w8vH9MiChZhZsF-73" edge="1">
          <mxGeometry relative="1" as="geometry" />
        </mxCell>
        <mxCell id="hakcB5w8vH9MiChZhZsF-76" value="asyn" style="edgeLabel;html=1;align=center;verticalAlign=middle;resizable=0;points=[];" parent="hakcB5w8vH9MiChZhZsF-74" vertex="1" connectable="0">
          <mxGeometry x="-0.1807" relative="1" as="geometry">
            <mxPoint as="offset" />
          </mxGeometry>
        </mxCell>
        <mxCell id="hakcB5w8vH9MiChZhZsF-75" style="edgeStyle=orthogonalEdgeStyle;rounded=0;orthogonalLoop=1;jettySize=auto;html=1;exitX=1;exitY=0.5;exitDx=0;exitDy=0;" parent="hakcB5w8vH9MiChZhZsF-4" source="hakcB5w8vH9MiChZhZsF-73" target="hakcB5w8vH9MiChZhZsF-56" edge="1">
          <mxGeometry relative="1" as="geometry" />
        </mxCell>
        <mxCell id="hakcB5w8vH9MiChZhZsF-78" style="edgeStyle=elbowEdgeStyle;rounded=0;orthogonalLoop=1;jettySize=auto;html=1;exitX=1;exitY=0.75;exitDx=0;exitDy=0;entryX=0.25;entryY=0;entryDx=0;entryDy=0;elbow=vertical;" parent="hakcB5w8vH9MiChZhZsF-4" source="hakcB5w8vH9MiChZhZsF-43" target="hakcB5w8vH9MiChZhZsF-48" edge="1">
          <mxGeometry relative="1" as="geometry">
            <Array as="points">
              <mxPoint x="830" y="790" />
            </Array>
          </mxGeometry>
        </mxCell>
        <mxCell id="hakcB5w8vH9MiChZhZsF-79" style="edgeStyle=orthogonalEdgeStyle;rounded=0;orthogonalLoop=1;jettySize=auto;html=1;exitX=1;exitY=0.25;exitDx=0;exitDy=0;entryX=0;entryY=0.5;entryDx=0;entryDy=0;" parent="hakcB5w8vH9MiChZhZsF-4" source="hakcB5w8vH9MiChZhZsF-43" target="hakcB5w8vH9MiChZhZsF-29" edge="1">
          <mxGeometry relative="1" as="geometry" />
        </mxCell>
      </root>
    </mxGraphModel>
  </diagram>
</mxfile>
